<svg width="320" height="472" xmlns="http://www.w3.org/2000/svg" xmlns:xlink="http://www.w3.org/1999/xlink" overflow="hidden"><defs><clipPath id="clip0"><path d="M280 110 600 110 600 582 280 582Z" fill-rule="evenodd" clip-rule="evenodd"/></clipPath><clipPath id="clip1"><path d="M324 110 599 110 599 581 324 581Z" fill-rule="evenodd" clip-rule="evenodd"/></clipPath><clipPath id="clip2"><path d="M324 110 599 110 599 581 324 581Z" fill-rule="evenodd" clip-rule="evenodd"/></clipPath><clipPath id="clip3"><path d="M324 110 599 110 599 581 324 581Z" fill-rule="evenodd" clip-rule="evenodd"/></clipPath><clipPath id="clip4"><path d="M281 110 556 110 556 581 281 581Z" fill-rule="evenodd" clip-rule="evenodd"/></clipPath><clipPath id="clip5"><path d="M281 110 556 110 556 581 281 581Z" fill-rule="evenodd" clip-rule="evenodd"/></clipPath><clipPath id="clip6"><path d="M281 110 556 110 556 581 281 581Z" fill-rule="evenodd" clip-rule="evenodd"/></clipPath></defs><g clip-path="url(#clip0)" transform="translate(-280 -110)"><g clip-path="url(#clip1)"><g clip-path="url(#clip2)"><g clip-path="url(#clip3)"><path d="M413.581 4238.17 276.276 4316.67 276.276 4630.67 413.581 4709.17 413.581 4552.17 550.887 4473.67 413.581 4395.17 550.887 4316.67Z" fill="#314A60" fill-rule="evenodd" transform="matrix(1.00142 0 -0 1 47.3333 -4128.17)"/></g></g></g><g clip-path="url(#clip4)"><g clip-path="url(#clip5)"><g clip-path="url(#clip6)"><path d="M413.581 4238.17 276.276 4316.67 276.276 4630.67 413.581 4709.17 413.581 4552.17 550.887 4473.67 413.581 4395.17 550.887 4316.67Z" fill="#42B783" fill-rule="evenodd" transform="matrix(1.00142 0 -0 1 4.33333 -4128.17)"/></g></g></g><path d="M281 189 419 267.766 419 581 281 502.234Z" fill="#7BCFA9" fill-rule="evenodd"/></g></svg>